# xmcd
# 
# Track frame offsets:
#     150
#     22548
#     41042
#     65042
# 
# Disc length: 1110
# 
# Revision: 0
# Processed by: cddbd v1.5.2PL0 Copyright (c) Steve Scherf et al.
# Submitted via: fre:ac v1.0.17
# 
DISCID=2a045404
DTITLE=加藤ミリヤ - Love/Affection - 神様
DYEAR=2014
DGENRE=R&B
TTITLE0=Love/Affection
TTITLE1=神様
TTITLE2=Love/Affection (DAISHI DANCE REMIX)
TTITLE3=神様 (Instrumental)
EXTD=
EXTT0=
EXTT1=
EXTT2=
EXTT3=
PLAYORDER=
